<?xml version="1.0" encoding="UTF-8"?><svg id="b" xmlns="http://www.w3.org/2000/svg" viewBox="0 0 436.81 134.79"><defs><style>.d{fill:none;stroke:#000;stroke-miterlimit:10;}.e{stroke-width:0px;}</style></defs><g id="c"><path class="e" d="M130.46,108.44c-.39.21-.58.54-.58,1v22.95c0,.46.19.8.58,1,.38.21.96.31,1.73.31h1.08v.69h-8.87v-.69h1.08c.77,0,1.35-.1,1.73-.31.39-.21.58-.54.58-1v-11.84h-15.5v11.84c0,.46.19.8.58,1,.38.21.96.31,1.73.31h1.08v.69h-8.87v-.69h1.08c.77,0,1.35-.1,1.73-.31s.58-.54.58-1v-22.95c0-.46-.19-.8-.58-1s-.96-.31-1.73-.31h-1.08v-.73h8.87v.73h-1.08c-.77,0-1.35.1-1.73.31-.39.21-.58.54-.58,1v9.95h15.5v-9.95c0-.46-.19-.8-.58-1-.38-.21-.96-.31-1.73-.31h-1.08v-.73h8.87v.73h-1.08c-.77,0-1.35.1-1.73.31h0Z"/><path class="e" d="M139.08,131.17c-2.17-2.4-3.26-5.83-3.26-10.28s1.09-7.84,3.26-10.26,5.23-3.62,9.16-3.62,6.98,1.21,9.14,3.62c2.16,2.42,3.24,5.84,3.24,10.26s-1.08,7.87-3.24,10.28-5.21,3.61-9.14,3.61-6.99-1.2-9.16-3.61ZM155.97,130.19c1.73-2.29,2.6-5.38,2.6-9.29s-.87-7.01-2.62-9.29-4.33-3.43-7.75-3.43-5.96,1.15-7.71,3.45-2.62,5.39-2.62,9.27.87,7,2.62,9.29,4.32,3.43,7.71,3.43,6.03-1.14,7.77-3.43h0Z"/><path class="e" d="M169.45,133.7h1.08c.77,0,1.35-.1,1.73-.31.39-.21.58-.54.58-1v-23.83h-5.55c-1.65,0-2.56,1.76-2.74,5.28h-.66v-6.44h19.98v6.44h-.66c-.18-3.52-1.09-5.28-2.74-5.28h-5.55v23.83c0,.46.19.8.58,1,.38.21.96.31,1.73.31h1.08v.69h-8.87v-.69h0Z"/><path class="e" d="M206.28,127.83l-.58,6.56h-19.36v-.69h1.08c.77,0,1.35-.1,1.74-.31.38-.21.58-.54.58-1v-22.95c0-.46-.19-.8-.58-1-.39-.21-.96-.31-1.74-.31h-1.08v-.73h19.4v6.21h-.69c-.15-3.37-1.12-5.05-2.89-5.05h-10.33v10.95h7.75c.77,0,1.27-.31,1.5-.94s.4-1.61.5-2.95h.66v8.95h-.66c-.1-1.34-.27-2.32-.5-2.95s-.73-.94-1.5-.94h-7.75v12.61h10.64c1,0,1.75-.58,2.26-1.73.5-1.16.8-2.39.91-3.7h.66l-.02-.03Z"/><path class="e" d="M208.86,133.7h1.04c.77,0,1.36-.1,1.75-.31s.6-.54.6-1v-22.95c0-.46-.2-.8-.6-1s-.98-.31-1.75-.31h-1.04v-.73h8.83v.73h-1.04c-.77,0-1.35.1-1.73.31-.39.21-.58.54-.58,1v22.44c0,.92.77,1.39,2.31,1.39h7.67c1,0,1.75-.6,2.24-1.81s.8-2.44.93-3.7h.69l-.58,6.63h-18.74v-.69Z"/><path class="e" d="M243.03,132.94c-1.57-1.22-2.35-2.9-2.35-5.03,0-1.26.31-2.37.93-3.34.62-.96,1.39-1.8,2.31-2.51s2.12-1.51,3.59-2.41c-1.23-1.18-2.21-2.44-2.93-3.78s-1.08-2.51-1.08-3.51c0-1.67.55-2.97,1.66-3.91s2.65-1.41,4.63-1.41c1.82,0,3.26.44,4.32,1.33,1.05.89,1.58,2.15,1.58,3.8s-.53,2.99-1.58,4.11c-1.06,1.12-2.53,2.26-4.44,3.41,1.05,1.16,2.27,2.4,3.64,3.74,1.38,1.34,2.24,2.19,2.6,2.55l3.12,3.05c1.52-2.01,2.49-4.35,2.93-7.02h1.35c-.44,3.06-1.58,5.7-3.43,7.91.93.9,2.4,2.39,4.43,4.47h-2.47l-3.24-3.28c-1.21,1.16-2.61,2.06-4.2,2.7-1.59.64-3.33.96-5.21.96-2.54,0-4.6-.61-6.17-1.83h0ZM253.96,132.79c1.4-.6,2.65-1.46,3.76-2.56-2.34-2.31-4.27-4.25-5.8-5.8-1.53-1.56-2.71-2.81-3.53-3.76-1.8,1.13-3.2,2.24-4.2,3.32s-1.5,2.35-1.5,3.82c0,1.88.65,3.33,1.95,4.36,1.3,1.03,2.9,1.54,4.8,1.54,1.62,0,3.13-.3,4.53-.91h-.01ZM252.9,115.73c.9-.98,1.35-2.16,1.35-3.55,0-1.28-.39-2.28-1.18-2.99s-1.84-1.06-3.18-1.06-2.44.36-3.22,1.08-1.18,1.72-1.18,3.01c0,2,1.14,4.22,3.43,6.63,1.75-1.1,3.07-2.15,3.97-3.12h0Z"/><path class="e" d="M279.62,132.38c-.1-.08-.23-.18-.39-.31-.15-.13-.26-.19-.31-.19-.23,0-.35.24-.35.73v1.7h-1v-6.9h.73c.13,1.11.59,2.14,1.37,3.1.78.96,1.77,1.73,2.97,2.29,1.2.57,2.42.85,3.68.85,2.16,0,3.88-.53,5.15-1.6s1.91-2.5,1.91-4.3c0-1.13-.33-2.11-.98-2.93-.66-.82-1.47-1.52-2.43-2.08s-2.28-1.23-3.95-2c-1.72-.8-3.1-1.5-4.13-2.1s-1.9-1.37-2.6-2.29c-.71-.93-1.06-2.02-1.06-3.28,0-1.95.75-3.45,2.26-4.49,1.51-1.04,3.48-1.56,5.92-1.56,1.41,0,2.65.21,3.72.62,1.07.41,1.93.88,2.6,1.39.18.13.3.19.35.19.2,0,.31-.18.31-.54v-1.5h1v6.9h-.73c-.18-1.75-.89-3.17-2.14-4.26s-2.82-1.64-4.72-1.64c-2.11,0-3.72.43-4.84,1.29s-1.68,2.01-1.68,3.45c0,1,.31,1.88.92,2.62.62.75,1.38,1.38,2.3,1.89.91.51,2.15,1.12,3.72,1.81,1.8.8,3.25,1.52,4.34,2.16s2.02,1.47,2.79,2.47,1.16,2.22,1.16,3.66-.37,2.74-1.1,3.84c-.73,1.09-1.75,1.94-3.05,2.53s-2.76.89-4.38.89c-2.91,0-5.36-.8-7.36-2.39v-.02Z"/><path class="e" d="M298.1,133.7h1.08c.77,0,1.35-.1,1.73-.31s.58-.54.58-1v-22.95c0-.46-.19-.8-.58-1s-.96-.31-1.73-.31h-1.08v-.73h12.15c2.75,0,4.75.72,6,2.16s1.87,3.43,1.87,5.98-.63,4.51-1.89,5.96c-1.26,1.45-3.25,2.18-5.98,2.18h-6.67v8.72c0,.46.19.8.58,1,.38.21.96.31,1.73.31h1.08v.69h-8.87v-.69h0ZM310.02,122.52c2.08,0,3.61-.62,4.59-1.87s1.47-2.95,1.47-5.11-.49-3.89-1.47-5.13-2.51-1.85-4.59-1.85h-6.44v13.96h6.44Z"/><path class="e" d="M342.37,133.7v.69h-8.06v-.69h.5c.54,0,1.07-.1,1.6-.31s.74-.46.64-.77l-2.51-6.86h-11.34l-2.39,6.52c-.13.41.06.75.58,1.02.51.27,1.04.41,1.58.41h.58v.69h-7.6v-.69h.58c.51,0,1.05-.13,1.6-.39.55-.26.89-.56,1.02-.92l9.14-24.53,1.51-.81,9.41,25.34c.15.36.49.67,1.02.92.53.26,1.03.39,1.52.39h.62ZM334.12,124.6l-5.21-14.27-5.28,14.27h10.49Z"/><path class="e" d="M63.89,13.52c-3.02-2.74-11.85-10.02-23.78-9.7C22.19,4.3,5.67,21.71,5.77,41.32c.1,19.22,16.22,36.79,33.96,37.04,11.7.16,20.3-7.27,23.22-10.06l1.05-1.18v-8.02h1.34v20.39h-1.34v-7.42c-6.72,5.24-15.17,8.36-24.35,8.36C17.75,80.43,0,62.68,0,40.78S17.75,1.13,39.65,1.13c9.18,0,17.63,3.12,24.35,8.36V1.54h1.34v20.39h-1.34c-.04-2.8-.08-5.61-.11-8.41h0Z"/><path class="e" d="M153.55,78.52v1.34h-20.39v-1.34h7.78c-3.35-8.14-6.7-16.29-10.05-24.43h-37.95c-2.83,8.14-5.65,16.29-8.48,24.43h9.26v1.34h-20.39v-1.34h8.82c8.73-25.36,17.45-50.71,26.18-76.07h-5.62v-1.34h12.61l31.38,77.41h6.86,0ZM130.04,51.84c-6.58-16.07-13.17-32.14-19.75-48.21-5.54,16.08-11.07,32.15-16.61,48.23,12.12,0,24.24,0,36.36,0h0Z"/><path class="e" d="M202.23,77.56c-1.65.65-8.85,3.96-18.43,2.63-13.76-1.91-21.73-11.69-23.59-14.1v6.69h-1.34v-20.39h1.34v9.14c.91,1.68,8.37,14.97,23.73,17.32,9.15,1.4,16.4-1.79,19.25-3.24,5.03-3.72,9.93-9.67,9-17.33-1.21-10.01-12.95-15.31-26.71-19.02-.97-.26-1.93-.52-2.91-.77h0c-9.82-2.58-20.7-5.87-23.2-13.18-3.37-9.85,2.97-16.86,10.99-20.54,2.16-.99,7.44-3.96,15.08-4.62,15.24-1.33,27.17,6.82,31.11,9.79v-5.93h1.34v20.39h-1.34v-11.69c-6.08-4.98-17.39-12.48-30.96-11.22-1.22.11-2.41.29-3.57.53-.91.29-2.5.74-2.5.74l-.66.3c-1.2.33-9.04,2.6-12.09,10-.53,1.3-1.55,5.11-.8,9.31,1.61,9.01,14.05,13.48,26.78,16.97,12.73,3.5,25.61,8.04,26.68,16.94,1.42,11.88-9.94,18.45-17.21,21.32v-.04Z"/><path class="e" d="M303.85,1.11v14.76h-1.34V3.26c-11.2.03-22.41.07-33.61.1v75.17h7.58v1.34h-20.39v-1.34h7.58V3.36c-11.2-.03-22.4-.07-33.61-.1v12.61h-1.34V1.11h75.13Z"/><path class="e" d="M311.27,1.11h20.39v1.34h-7.58v75.18h44.45c0-4.17.02-8.35.02-12.52h1.34v14.76h-58.63v-1.34h7.58V2.46h-7.58v-1.34h0Z"/><path class="e" d="M390.11,3.32c.02,12.02.04,24.03.06,36.05h25.57v-6.2h1.34v14.76h-1.34c0-2.1,0-4.21-.01-6.31-8.52,0-17.04,0-25.56,0v36.02c15.09,0,30.18,0,45.27,0,0-4.18.02-8.37.03-12.55h1.34v14.76h-59.44v-1.34h7.58V2.46h-7.58v-1.34h59.44v14.76h-1.34c-.02-4.17-.03-8.34-.05-12.5-15.1,0-30.2-.03-45.3-.04v-.02Z"/><rect class="d" x=".58" y="120.71" width="64.25" height=".36"/><rect class="d" x="371.97" y="120.71" width="64.25" height=".36"/></g></svg>